# xmcd
#
# Track frame offsets: 
#        150
#        13425
#        22070
#        32697
#        47922
#        65882
#        75547
#        86377
#        95287
#        114937
#        129307
#        140870
#        152152
#        165917
#        179317
#        195667
#
# Disc length: 2710 seconds
#
# Revision: 2
# Processed by: cddbd v1.5.1PL0 Copyright (c) Steve Scherf et al.
# Submitted via: ExactAudioCopy v0.90b4
#
DISCID=d20a9410
DTITLE=Various Artist - Bugsy Malone [Original Cast Recording]
DYEAR=1997
DGENRE=Showtunes
TTITLE0=Orchestra - Overture
TTITLE1=Sheridan Smith and Singing Girls - Bugsy Malone
TTITLE2=Dancing Girls and Full Company - Fat Sam's Grand Slam
TTITLE3=Stuart Piper, Hannah Spearritt and Dandy Dan's Gang - That's Why
TTITLE3=They Call Him Dandy
TTITLE4=Shean Williams - Tomorrow
TTITLE5=Lena Marelli and Dancers - Show Business
TTITLE6=Fat Sam's Gang - Bad Guys
TTITLE7=Gangsters - Double Chorus
TTITLE8=Full Company - Finale Act 1: You Give A Little Love
TTITLE9=Sheridan Smith and Singing Girls - My Name Is Tallulah
TTITLE10=Leanne Connelly and Michael Sturges - I'm Feeling Fine
TTITLE11=Chris Dyer, Nana Kumi and Boxers - So You Wanna Be A Boxer?
TTITLE12=Leanne Connelly - Ordinary Fool
TTITLE13=Michael Sturges, Nana Kumi and Chorus - Down And Out
TTITLE14=Shean Williams and Company - Finale Act 2: You Give A Little Lo
TTITLE14=ve
TTITLE15=Orchestra - Exit Music
EXTD=Words and Music by\nPAUL WILLIAMS\nLibretto\nALAN PARKER\n\nMusic
EXTD=al Direction and Orchestrations by\nJOHN PEARSON\n\nStarring memb
EXTD=ers of The National Youth Music Theatre.
EXTT0=
EXTT1=
EXTT2=
EXTT3=
EXTT4=
EXTT5=
EXTT6=
EXTT7=
EXTT8=
EXTT9=
EXTT10=
EXTT11=
EXTT12=
EXTT13=
EXTT14=
EXTT15=
PLAYORDER=
